<?xml version="1.0" encoding="utf-8"?>
<!-- Generator: Adobe Illustrator 17.1.0, SVG Export Plug-In . SVG Version: 6.00 Build 0)  -->
<!DOCTYPE svg PUBLIC "-//W3C//DTD SVG 1.1//EN" "http://www.w3.org/Graphics/SVG/1.1/DTD/svg11.dtd">
<svg version="1.1" id="Layer_2" xmlns="http://www.w3.org/2000/svg" xmlns:xlink="http://www.w3.org/1999/xlink" x="0px" y="0px"
	 viewBox="0 0 1000 1000" enable-background="new 0 0 1000 1000" xml:space="preserve">
<path fill="#3D52A4" d="M934,1000H62c-36.2,0-65.5-29.3-65.5-65.5V66C-3.5,29.8,25.8,0.5,62,0.5h872c36.2,0,65.5,29.3,65.5,65.5
	v868.5C999.5,970.7,970.2,1000,934,1000z"/>
<path fill="#FFFFFF" d="M844.6,157.1v135.8c0,0-101.7-2.1-116,4.6c0,0-37.5,10.3-37.8,57.6l-0.3,106.7h148.8l-19.1,150.5H690.6
	v387.2H533.9V612.3H403.4V461.7h130.5V325c0,0,6.8-128.3,122.1-163.1C656.1,161.9,702.5,144.6,844.6,157.1z"/>
</svg>
