<?xml version="1.0" encoding="utf-8"?>
<!-- Generator: Adobe Illustrator 17.1.0, SVG Export Plug-In . SVG Version: 6.00 Build 0)  -->
<!DOCTYPE svg PUBLIC "-//W3C//DTD SVG 1.1//EN" "http://www.w3.org/Graphics/SVG/1.1/DTD/svg11.dtd">
<svg version="1.1" id="Layer_2" xmlns="http://www.w3.org/2000/svg" xmlns:xlink="http://www.w3.org/1999/xlink" x="0px" y="0px"
	 viewBox="-2.1 90.3 613.8 611.7" enable-background="new -2.1 90.3 613.8 611.7" xml:space="preserve">
<path fill="#3D52A4" d="M571.6,702H37.9c-22.2,0-40.1-17.9-40.1-40.1V130.4c0-22.2,17.9-40.1,40.1-40.1h533.7
	c22.2,0,40.1,17.9,40.1,40.1v531.5C611.7,684.1,593.8,702,571.6,702z"/>
<path fill="#FFFFFF" d="M516.9,186.1v83.1c0,0-62.2-1.3-71,2.8c0,0-22.9,6.3-23.1,35.3l-0.2,65.3h91.1L502,464.7h-79.3v237h-95.9
	v-237h-79.9v-92.2h79.9v-83.7c0,0,4.2-78.5,74.7-99.8C401.5,189.1,429.9,178.5,516.9,186.1z"/>
</svg>
