<?xml version="1.0" encoding="utf-8"?>
<!-- Generator: Adobe Illustrator 17.1.0, SVG Export Plug-In . SVG Version: 6.00 Build 0)  -->
<!DOCTYPE svg PUBLIC "-//W3C//DTD SVG 1.1//EN" "http://www.w3.org/Graphics/SVG/1.1/DTD/svg11.dtd">
<svg version="1.1" id="Layer_1" xmlns="http://www.w3.org/2000/svg" xmlns:xlink="http://www.w3.org/1999/xlink" x="0px" y="0px"
	 viewBox="0 0 537.3 241.2" enable-background="new 0 0 537.3 241.2" xml:space="preserve">
<g>
	
		<ellipse transform="matrix(-5.366064e-02 0.9986 -0.9986 -5.366064e-02 248.3848 5.7573)" fill="#BAD8E1" cx="121.5" cy="120.6" rx="120.6" ry="121.5"/>
	<path fill="#BAD8E1" d="M537.2,141.1l0-0.8c1.1-20.5-7.9-37.7-20.1-38.4L222.4,86.2c-12.2-0.7-23,15.5-24.1,36l0,0.8
		c-1.1,20.5,7.9,37.7,20.1,38.4l294.7,15.8C525.3,177.8,536,161.7,537.2,141.1z"/>
	
		<rect x="370.5" y="172.7" transform="matrix(-5.366064e-02 0.9986 -0.9986 -5.366064e-02 590.9817 -189.7105)" fill="#BAD8E1" width="29.8" height="25"/>
	
		<rect x="420.4" y="175.4" transform="matrix(-5.366064e-02 0.9986 -0.9986 -5.366064e-02 646.284 -236.7532)" fill="#BAD8E1" width="29.8" height="25"/>
	
		<rect x="324.1" y="170.2" transform="matrix(-5.366064e-02 0.9986 -0.9986 -5.366064e-02 539.6296 -146.0281)" fill="#BAD8E1" width="29.8" height="25"/>
	<circle fill="#FFFFFF" cx="121" cy="120" r="73"/>
</g>
<rect x="20.5" y="15.2" fill="none" width="265.3" height="157.1"/>
<text transform="matrix(1 0 0 1 20.4933 117.4587)"><tspan x="0" y="0" font-family="'Lavanderia-Sturdy'" font-size="130" letter-spacing="-10">K</tspan><tspan x="108.5" y="0" font-family="'Lavanderia-Sturdy'" font-size="130" letter-spacing="-5"> </tspan><tspan x="126.9" y="0" font-family="'Lavanderia-Sturdy'" font-size="90">ey</tspan></text>
<rect x="243.2" y="15.2" fill="none" width="479.6" height="202"/>
<text transform="matrix(1 0 0 1 243.1817 117.4596)"><tspan x="0" y="0" font-family="'Lavanderia-Sturdy'" font-size="130">S</tspan><tspan x="137.7" y="0" font-family="'Lavanderia-Sturdy'" font-size="90">tudios</tspan></text>
</svg>
