<?xml version="1.0" encoding="utf-8"?>
<!-- Generator: Adobe Illustrator 17.1.0, SVG Export Plug-In . SVG Version: 6.00 Build 0)  -->
<!DOCTYPE svg PUBLIC "-//W3C//DTD SVG 1.1//EN" "http://www.w3.org/Graphics/SVG/1.1/DTD/svg11.dtd">
<svg version="1.1" id="Layer_2" xmlns="http://www.w3.org/2000/svg" xmlns:xlink="http://www.w3.org/1999/xlink" x="0px" y="0px"
	 viewBox="0 0 855.505 855.569" enable-background="new 0 0 855.505 855.569" xml:space="preserve">
<circle fill="#C91F1F" cx="431.936" cy="432" r="423.569"/>
<path fill="#FFFFFF" d="M326.096,494.087c0,0-83.996,266.987-65.997,326.984l52.497,17.999c0,0,29.999-16.499,71.996-203.99
	c0,0,64.497,104.995,223.489,13.499c0,0,174.741-129.744,88.496-353.982c0,0-95.385-214.489-377.981-122.994
	c0,0-161.992,55.497-175.491,232.488c0,0-9,101.995,62.997,160.492c0,0,34.691,31.29,50.997-19.499c0,0,13.41-29.909-7.5-44.998
	c0,0-55.497-64.497,13.499-191.99c0,0,54.718-100.409,229.489-79.496c0,0,110.994,25.499,119.994,137.993
	c0,0,6,139.493-55.497,203.99c0,0-55.496,73.496-126.743,20.999c0,0-41.247-26.999,0-116.994c0,0,63.746-134.993-21.75-157.492
	c0,0-73.496-25.499-97.495,76.496C311.096,393.592,299.847,467.839,326.096,494.087z"/>
</svg>
