<?xml version="1.0" encoding="utf-8"?>
<!-- Generator: Adobe Illustrator 17.1.0, SVG Export Plug-In . SVG Version: 6.00 Build 0)  -->
<!DOCTYPE svg PUBLIC "-//W3C//DTD SVG 1.1//EN" "http://www.w3.org/Graphics/SVG/1.1/DTD/svg11.dtd">
<svg version="1.1" id="Layer_2" xmlns="http://www.w3.org/2000/svg" xmlns:xlink="http://www.w3.org/1999/xlink" x="0px" y="0px"
	 viewBox="0 0 273.4 221.4" enable-background="new 0 0 273.4 221.4" xml:space="preserve">
<path fill="#4BC8F3" d="M18.5,9.7c0,0,39,54,116,58.5c0,0-9-44,27.5-61.5c0,0,35-20.5,67.5,10c0,0,28.5-4.5,36.5-13.5
	c0,0-8,21.8-24,30.9c0,0,21.2-0.9,31.4-7.4c0,0-17,22.9-27.2,27.2c0,0,4.3,75.8-50.2,124.8s-130.5,57-196,17.5
	c0,0,40.5,10.5,82.5-23.5c0,0-33,4.5-52-38c0,0,6,0,24.5,0c0,0-42-11-45-57c0,0,18,9,26.5,7C36.5,84.7-3,59.2,18.5,9.7z"/>
</svg>
